<?xml version="1.0" encoding="UTF-8"?>
<!DOCTYPE svg PUBLIC "-//W3C//DTD SVG 1.1//EN" "http://www.w3.org/Graphics/SVG/1.1/DTD/svg11.dtd">
<!-- Creator: CorelDRAW 2020 (64-Bit) -->
<svg xmlns="http://www.w3.org/2000/svg" xml:space="preserve" width="22.225mm" height="22.225mm" version="1.1" style="shape-rendering:geometricPrecision; text-rendering:geometricPrecision; image-rendering:optimizeQuality; fill-rule:evenodd; clip-rule:evenodd"
viewBox="0 0 107.27 107.27"
 xmlns:xlink="http://www.w3.org/1999/xlink"
 xmlns:xodm="http://www.corel.com/coreldraw/odm/2003">
 <defs>
  <style type="text/css">
   <![CDATA[
    .fil0 {fill:white}
    .fil1 {fill:#02A9CD;fill-rule:nonzero}
   ]]>
  </style>
 </defs>
 <g id="Layer_x0020_1">
  <metadata id="CorelCorpID_0Corel-Layer"/>
  <circle class="fil0" cx="53.64" cy="53.64" r="53.64"/>
  <path class="fil1" d="M53.64 83c4.05,0 7.34,-3.29 7.34,-7.34l-14.67 0c0,4.05 3.29,7.34 7.34,7.34zm24.7 -17.17c-2.22,-2.38 -6.36,-5.96 -6.36,-17.69 0,-8.91 -6.25,-16.04 -14.67,-17.79l0 -2.39c0,-2.03 -1.64,-3.67 -3.67,-3.67 -2.03,0 -3.67,1.64 -3.67,3.67l0 2.39c-8.43,1.75 -14.67,8.88 -14.67,17.79 0,11.73 -4.15,15.31 -6.36,17.69 -0.69,0.74 -0.99,1.62 -0.99,2.49 0.01,1.88 1.49,3.67 3.68,3.67l44.02 0c2.19,0 3.67,-1.79 3.68,-3.67 0.01,-0.87 -0.3,-1.75 -0.99,-2.49z"/>
 </g>
</svg>
