<?xml version="1.0" encoding="UTF-8"?>
<!DOCTYPE svg PUBLIC "-//W3C//DTD SVG 1.1//EN" "http://www.w3.org/Graphics/SVG/1.1/DTD/svg11.dtd">
<!-- Creator: CorelDRAW 2020 (64-Bit) -->
<svg xmlns="http://www.w3.org/2000/svg" xml:space="preserve" width="22.225mm" height="22.225mm" version="1.1" style="shape-rendering:geometricPrecision; text-rendering:geometricPrecision; image-rendering:optimizeQuality; fill-rule:evenodd; clip-rule:evenodd"
viewBox="0 0 107.27 107.27"
 xmlns:xlink="http://www.w3.org/1999/xlink"
 xmlns:xodm="http://www.corel.com/coreldraw/odm/2003">
 <defs>
  <style type="text/css">
   <![CDATA[
    .fil1 {fill:#02A9CD}
    .fil0 {fill:white}
   ]]>
  </style>
 </defs>
 <g id="Layer_x0020_1">
  <metadata id="CorelCorpID_0Corel-Layer"/>
  <circle class="fil0" cx="53.64" cy="53.64" r="53.64"/>
  <g id="_2221428142944">
   <path class="fil1" d="M23.09 76.71c0,3 3.04,5.88 6.21,5.88l48.69 0c3.16,0 6.21,-2.88 6.21,-5.88l0 -34.16 -61.1 0 0 34.16 0 0zm26.7 -19.32l7.69 0 0 -7.51 -7.69 0 0 7.51zm0 14.54l7.69 0 0 -7.51 -7.69 0 0 7.51zm16.18 -14.64l7.92 0 0 -7.29 -7.92 0 0 7.29zm-32.58 0l7.92 0 0 -7.29 -7.92 0 0 7.29zm32.58 14.64l7.92 0 0 -7.51 -7.92 0 0 7.51zm-32.58 0l7.92 0 0 -7.51 -7.92 0 0 7.51z"/>
   <path class="fil1" d="M34.54 26.49l0 1.81 -5.13 0c-3.34,0 -6.32,3.05 -6.32,5.77l0 5.2 61.1 0 0 -5.2c0,-0.8 -0.37,-1.73 -0.68,-2.3 -0.98,-1.85 -3.16,-3.47 -5.65,-3.47l-1.67 0 0 5.54c0,1.71 -3.41,2.3 -3.47,-0.33 -0.05,-2.18 0.1,-5.01 0.01,-7.02 -0.05,-1.1 -0.81,-1.72 -1.62,-1.81l-0.43 0c-0.85,0.09 -1.65,0.76 -1.65,2.04l0 1.58 -4.3 0 0 5.43c0,1.13 -1.66,2.26 -2.96,1.11 -0.42,-0.37 -0.5,-0.47 -0.51,-1.22l-0.01 -7.01c-0.05,-0.47 -0.18,-0.95 -0.44,-1.28 -0.32,-0.41 -0.79,-0.61 -1.26,-0.66l-0.4 0c-0.43,0.04 -0.83,0.21 -1.09,0.48 -0.71,0.75 -0.51,1.85 -0.51,3.14l-4.06 0c-0.56,0 -0.36,0.88 -0.36,1.81 0,0.75 0,1.51 0,2.26 0,0.81 0.32,2.94 -1.67,2.94 -2.38,0 -1.79,-2.99 -1.79,-5.32 0,-1.16 0.03,-2.35 0.01,-3.51 -0.02,-1.02 -0.73,-1.67 -1.52,-1.8l-0.62 0c-0.82,0.14 -1.57,0.88 -1.57,2.38l0 1.24 -4.3 0 0 5.32c0,2.21 -3.42,2.32 -3.47,0.01 -0.05,-2.18 0.1,-5.01 0.01,-7.02 -0.03,-0.55 -0.14,-0.95 -0.44,-1.28 -0.36,-0.39 -0.81,-0.6 -1.24,-0.64l-0.41 0c-0.86,0.09 -1.61,0.78 -1.61,1.81l0 -0z"/>
  </g>
 </g>
</svg>
