<?xml version="1.0" encoding="UTF-8"?>
<!DOCTYPE svg PUBLIC "-//W3C//DTD SVG 1.1//EN" "http://www.w3.org/Graphics/SVG/1.1/DTD/svg11.dtd">
<!-- Creator: CorelDRAW 2020 (64-Bit) -->
<svg xmlns="http://www.w3.org/2000/svg" xml:space="preserve" width="22.225mm" height="22.225mm" version="1.1" style="shape-rendering:geometricPrecision; text-rendering:geometricPrecision; image-rendering:optimizeQuality; fill-rule:evenodd; clip-rule:evenodd"
viewBox="0 0 107.27 107.27"
 xmlns:xlink="http://www.w3.org/1999/xlink"
 xmlns:xodm="http://www.corel.com/coreldraw/odm/2003">
 <defs>
  <style type="text/css">
   <![CDATA[
    .fil1 {fill:#02A9CD}
    .fil0 {fill:white}
   ]]>
  </style>
 </defs>
 <g id="Layer_x0020_1">
  <metadata id="CorelCorpID_0Corel-Layer"/>
  <circle class="fil0" cx="53.64" cy="53.64" r="53.64"/>
  <g id="_2221569520976">
   <path class="fil1" d="M41 67.14c2.83,0.22 5.87,5.09 2.37,8.41 -3.26,3.09 -9.12,1.06 -9.12,-3.64 0,-2.55 1.98,-4.4 4.17,-4.89 0.02,-1.07 1.15,-5.74 1.42,-6.8l1.47 -4.65c0.19,-0.53 0.49,-1.07 0.54,-1.59 -0.82,0.18 -3.05,1.61 -3.82,2.2 -1.16,0.88 -2.33,1.78 -3.23,2.88 -0.77,0.94 -0.97,1.04 -1.81,2.24 -4.76,6.79 -3.9,12.76 -3.9,20.86 0,0.61 0.55,1.28 1.23,1.28l46.63 0c0.68,0 1.23,-0.67 1.23,-1.28 0,-8.23 0.84,-14.72 -4.22,-21.37 -1.82,-2.38 -4.15,-4.48 -6.81,-5.99 -0.74,-0.42 -2.03,-1.19 -2.95,-1.39 0.02,0.73 0.37,1.74 0.51,2.54 0.21,1.2 0.49,2.91 0.47,4.21 -0.02,1.55 0.1,0.99 1.14,1.94 0.37,0.33 0.45,0.55 0.79,0.88 3.62,3.55 6.88,9.98 1.46,13.07 -0.88,0.5 -1.93,1.04 -2.72,0.47 -0.44,-0.31 -0.42,-0.67 -0.42,-1.12 0,-1.31 3.44,-1.27 3.44,-3.72 0,-2.15 -0.8,-3.7 -2.05,-5.27 -0.77,-0.97 -2.37,-2.84 -3.35,-3.46 -1.74,0.38 -5.46,3.13 -6.72,4.8 -1.49,1.98 -1.64,3.83 0.56,5.45 1.81,1.34 -0.26,3.81 -2.7,0.93 -3.53,-4.15 -0.19,-8.47 3.44,-10.98 0.79,-0.55 3.56,-2.32 4.56,-2.54 0,-2.6 -0.41,-4.73 -0.96,-6.77 -0.45,-1.69 0.13,-1.37 -2.14,-1.81 -2.94,-0.57 -11.23,-0.65 -13.92,0.47 -0.68,0.29 -1.79,3.73 -2.02,4.37 -0.53,1.51 -1.11,3.16 -1.49,4.87 -0.18,0.8 -0.4,1.69 -0.59,2.58 -0.15,0.7 -0.48,2.04 -0.48,2.8l0 0z"/>
   <path class="fil1" d="M40.02 36.06c0,2.69 0.06,3.98 1.39,6.48 2.19,4.12 6.77,7.25 12.23,7.25 5.41,0 10.04,-3.11 12.19,-7.18 2.91,-5.5 1.38,-11.78 -3.38,-15.73 -0.32,-0.27 -0.52,-0.42 -0.88,-0.67 -2.13,-1.46 -4.62,-2.25 -7.16,-2.38l-1.5 0c-2.48,0.13 -4.94,0.89 -7.05,2.28 -0.34,0.22 -0.61,0.41 -0.9,0.66 -2.51,2.13 -4.94,5.14 -4.94,9.28z"/>
  </g>
 </g>
</svg>
