<?xml version="1.0" encoding="UTF-8"?>
<!DOCTYPE svg PUBLIC "-//W3C//DTD SVG 1.1//EN" "http://www.w3.org/Graphics/SVG/1.1/DTD/svg11.dtd">
<!-- Creator: CorelDRAW 2020 (64-Bit) -->
<svg xmlns="http://www.w3.org/2000/svg" xml:space="preserve" width="22.225mm" height="22.225mm" version="1.1" style="shape-rendering:geometricPrecision; text-rendering:geometricPrecision; image-rendering:optimizeQuality; fill-rule:evenodd; clip-rule:evenodd"
viewBox="0 0 107.27 107.27"
 xmlns:xlink="http://www.w3.org/1999/xlink"
 xmlns:xodm="http://www.corel.com/coreldraw/odm/2003">
 <defs>
  <style type="text/css">
   <![CDATA[
    .fil0 {fill:white}
    .fil1 {fill:#02A9CD;fill-rule:nonzero}
   ]]>
  </style>
 </defs>
 <g id="Layer_x0020_1">
  <metadata id="CorelCorpID_0Corel-Layer"/>
  <circle class="fil0" cx="53.64" cy="53.64" r="53.64"/>
  <path class="fil1" d="M78.74 36.26l-9.66 0 0 -5.79c0,-3.2 -2.6,-5.79 -5.79,-5.79l-19.31 0c-3.2,0 -5.79,2.6 -5.79,5.79l0 5.79 -9.66 0c-3.2,0 -5.79,2.6 -5.79,5.79l0 34.76c0,3.2 2.6,5.79 5.79,5.79l50.21 0c3.2,0 5.79,-2.6 5.79,-5.79l0 -34.76c0,-3.2 -2.6,-5.79 -5.79,-5.79zm-32.83 -3.86l15.45 0 0 3.86 -15.45 0 0 -3.86zm19.31 29.94c0,0.53 -0.43,0.97 -0.97,0.97l-6.76 0 0 6.76c0,0.53 -0.43,0.97 -0.97,0.97l-5.79 0c-0.53,0 -0.97,-0.43 -0.97,-0.97l0 -6.76 -6.76 0c-0.53,0 -0.97,-0.43 -0.97,-0.97l0 -5.79c0,-0.53 0.43,-0.97 0.97,-0.97l6.76 0 0 -6.76c0,-0.53 0.43,-0.97 0.97,-0.97l5.79 0c0.53,0 0.97,0.43 0.97,0.97l0 6.76 6.76 0c0.53,0 0.97,0.43 0.97,0.97l0 5.79 0 0z"/>
 </g>
</svg>
