<?xml version="1.0" encoding="UTF-8"?>
<!DOCTYPE svg PUBLIC "-//W3C//DTD SVG 1.1//EN" "http://www.w3.org/Graphics/SVG/1.1/DTD/svg11.dtd">
<!-- Creator: CorelDRAW 2020 (64-Bit) -->
<svg xmlns="http://www.w3.org/2000/svg" xml:space="preserve" width="22.225mm" height="22.225mm" version="1.1" style="shape-rendering:geometricPrecision; text-rendering:geometricPrecision; image-rendering:optimizeQuality; fill-rule:evenodd; clip-rule:evenodd"
viewBox="0 0 107.27 107.27"
 xmlns:xlink="http://www.w3.org/1999/xlink"
 xmlns:xodm="http://www.corel.com/coreldraw/odm/2003">
 <defs>
  <style type="text/css">
   <![CDATA[
    .str0 {stroke:#FEFEFE;stroke-width:4.46;stroke-linecap:round;stroke-linejoin:round;stroke-miterlimit:22.9256}
    .fil2 {fill:none}
    .fil1 {fill:#02A9CD}
    .fil0 {fill:white}
   ]]>
  </style>
   <clipPath id="id0">
    <path d="M22.87 26.1l0 55.09c0,0.21 0.25,0.6 0.4,0.76 0.02,0.02 0.05,0.04 0.07,0.07l0.26 0.19c0.11,0.06 0.31,0.18 0.45,0.18l47.03 0c0.09,0 0.04,-0.02 0.11,-0.06 0.01,-0 0.01,-0.01 0.02,-0.01l0.53 -0.29c0.2,-0.17 0.36,-0.39 0.42,-0.64 0.05,-0.23 0.11,-0.22 0.11,-0.57l0 -54.39c0,-0.27 -0.06,-0.3 -0.11,-0.49l-0.1 -0.26c-0.19,-0.29 -0.37,-0.46 -0.67,-0.64l-0.17 -0.06c-0.14,-0.06 0.02,-0.06 -0.37,-0.06 -3.68,0.02 -7.35,0 -11.03,0l0 4.26c0,0.6 -0.07,0.53 -0.12,0.96l-0.06 0.22c-0.05,0.11 -0.04,0.06 -0.07,0.21l-0.26 0.59c-0.03,0.06 -0.02,0.02 -0.06,0.08 -0.19,0.29 -0.17,0.31 -0.33,0.5l-0.48 0.53c-0.02,0.02 -0.06,0.05 -0.07,0.07l-0.08 0.06c-0,0 -0.01,0.01 -0.02,0.01l-0.74 0.5c-0.01,0 -0.03,0.02 -0.03,0.02 -0.16,0.1 -0.51,0.23 -0.68,0.28 -0.16,0.05 -0.02,0.05 -0.2,0.09 -0.1,0.02 -0.16,0.01 -0.25,0.04 -0.09,0.03 -0.1,0.06 -0.21,0.08 -0.12,0.02 -0.41,0.03 -0.54,0.03 -0.2,0.01 -0.32,0.05 -0.55,0.05l-15.11 0c-0.21,0 -0.31,-0.05 -0.49,-0.05 -0.23,-0.01 -0.5,-0 -0.71,-0.1 -0.11,-0.05 -0.11,-0.03 -0.24,-0.04 -0.14,-0.02 -0.09,-0.04 -0.2,-0.08 -0.1,-0.04 -0.2,-0.04 -0.3,-0.1l-0.57 -0.28c-0.15,-0.06 -0.48,-0.31 -0.6,-0.41l-0.82 -0.86c-0,-0 -0.01,-0.01 -0.01,-0.02l-0.15 -0.24c-0.04,-0.06 -0.02,-0.01 -0.06,-0.08l-0.28 -0.66c-0.06,-0.12 -0.06,-0.01 -0.09,-0.19 -0.01,-0.06 -0.01,-0.14 -0.04,-0.21 -0.05,-0.14 -0.06,-0.03 -0.07,-0.2 -0.01,-0.18 -0.03,-0.31 -0.03,-0.51l0 -4.56 -10.27 0c-0.18,0 -0.99,-0.04 -1.13,0.03l-0.41 0.21c-0,0 -0.01,0.01 -0.02,0.01l-0.29 0.27c-0,0 -0.01,0.01 -0.01,0.01 -0.1,0.11 -0.15,0.2 -0.21,0.35 -0.04,0.12 -0.11,0.13 -0.11,0.3l0 0zm55.45 1.83l0 8.4c0,0.06 0.08,0.13 0.14,0.13l5.93 0 0 -9.66c-0.02,-0.2 0,0.07 -0.1,-0.21l-0.17 -0.3c-0.14,-0.18 -0.23,-0.36 -0.43,-0.54 -0.24,-0.23 -0.22,-0.19 -0.46,-0.36l-0.32 -0.19c-0.13,-0.06 -0.09,-0.07 -0.21,-0.1 -0.1,-0.03 -0.04,0 -0.13,-0.04 -0.23,-0.11 -0.06,-0.04 -0.26,-0.08 -0.24,-0.04 0.04,-0.08 -0.44,-0.08 -0.13,0 -1.1,-0.02 -1.19,0.02l-0.09 0.05c-0.12,0.04 -0.12,-0.01 -0.25,0.06 -0.09,0.05 -0.01,0.02 -0.12,0.05l-0.46 0.22c-0.27,0.16 -0.64,0.43 -0.81,0.68l-0.48 0.82c-0.08,0.32 -0.13,0.26 -0.13,0.5 -0,0.21 -0.03,0.38 -0.03,0.62l0 0zm0 11.42l0 35.74c0,0.18 0.01,0.39 0.04,0.56 0.02,0.12 0.05,0.13 0.08,0.22 0.03,0.09 0.02,0.19 0.05,0.28 0.03,0.1 0.06,0.11 0.08,0.22 0.02,0.09 0.02,0.2 0.05,0.28 0.05,0.12 0.05,0.05 0.08,0.22 0.06,0.38 0.05,0.18 0.11,0.36 0.05,0.17 -0.01,0.18 0.09,0.38 0.12,0.25 -0.03,0.11 0.14,0.49 0.05,0.1 0.02,0.14 0.04,0.26 0.02,0.1 0.07,0.15 0.1,0.23 0.03,0.09 0.01,0.17 0.04,0.26 0.04,0.12 0.07,0.11 0.09,0.24 0.02,0.11 0.01,0.15 0.05,0.25 0.12,0.28 0.05,0.32 0.12,0.48 0.16,0.33 0.01,0.22 0.15,0.48 0.05,0.1 0.04,0.14 0.06,0.27 0.01,0.14 0.04,0.13 0.08,0.22 0.05,0.12 0.01,0.16 0.05,0.28 0.03,0.12 0.06,0.08 0.09,0.21 0.04,0.17 0.05,0.24 0.18,0.42 0.03,0.04 0.03,0.04 0.07,0.1 0.11,0.16 0.27,0.29 0.45,0.39l0.25 0.12c0.02,0.01 0.05,0.03 0.06,0.03 0.04,0.02 0.1,0.03 0.17,0.04l0.8 0c0.11,0 0.01,-0.03 0.18,-0.08 0.06,-0.02 0.03,0 0.09,-0.02 0.07,-0.03 0.05,-0.03 0.1,-0.06 0.04,-0.03 0.08,-0.05 0.12,-0.08 0.14,-0.1 0.27,-0.22 0.37,-0.36 0,-0 0.01,-0.01 0.01,-0.02 0.22,-0.29 0.01,-0.04 0.18,-0.31 0.08,-0.12 0.02,-0.16 0.07,-0.29 0.03,-0.09 0.03,-0.04 0.07,-0.13 0.04,-0.09 0.02,-0.21 0.06,-0.32 0.04,-0.12 0.06,-0.1 0.09,-0.27 0,-0.03 0.01,-0.09 0.02,-0.14 0.03,-0.14 0,-0.03 0.05,-0.14 0.04,-0.09 0.04,-0.19 0.06,-0.3 0.03,-0.14 0.06,-0.09 0.1,-0.26 0.02,-0.1 0.01,-0.19 0.06,-0.3 0.06,-0.13 0.06,-0.1 0.08,-0.28 0.01,-0.17 0.05,-0.13 0.09,-0.26 0.04,-0.11 0.01,-0.21 0.06,-0.33 0.03,-0.06 0.03,-0.03 0.06,-0.11 0.05,-0.13 -0.03,-0.11 0.11,-0.44 0.04,-0.09 0.03,-0.2 0.06,-0.3 0.03,-0.15 0.06,-0.08 0.09,-0.26 0.03,-0.2 -0.01,-0.14 0.07,-0.29 0.05,-0.1 0.06,-0.16 0.07,-0.29 0.02,-0.19 0.05,-0.11 0.1,-0.26 0.01,-0.04 0.01,-0.09 0.02,-0.17 0.02,-0.29 0.08,0.03 0.09,-0.37l0 -0.11c-0.03,-4.6 0,-9.25 0,-13.85l0 -0.36 0 -0.35 0 -0.36 0 -0.35 0 -0.36 0 -0.36 0 -0.35 0 -0.36 0 -0.36 0 -0.36 0 -0.35 0 -0.36 0 -0.35 0 -0.36 0 -0.35 0 -0.36 0 -0.36 0 -0.35 0 -0.36 0 -0.36 0 -0.36 0 -0.36 0 -0.35 0 -0.36 0 -0.35 0 -0.36 0 -0.35 0 -0.36 0 -0.35 0 -0.36 0 -0.36 0 -0.35 0 -0.36 0 -0.35 0 -0.36 0 -0.35 0 -0.36 0 -0.36 0 -0.36 0 -0.36 0 -0.35 0 -0.36 0 -0.36 0 -0.36 0 -0.35 0 -0.36 0 -0.36 0 -0.35 0 -0.36 0 -0.35 0 -0.36 0 -0.35 0 -0.36 0 -0.35 0 -0.36 0 -0.36 0 -0.35 0 -0.36 0 -0.35 0 -0.36 0 -0.35 0 -0.36 0 -0.36 0 -0.35 -5.96 0c-0.07,0 -0.12,0.04 -0.12,0.11l0 0zm-40.06 -10.02c0,0.41 0.29,0.81 0.63,1.06l0.31 0.17c0.3,0.13 0.04,0.06 0.39,0.1 0.12,0.01 0.21,0.02 0.38,0.02l15.11 0c0.18,0 0.59,-0 0.71,-0.06 0.07,-0.04 0.01,-0.02 0.11,-0.06 0.11,-0.04 0.04,0 0.14,-0.06 0.05,-0.03 0.07,-0.04 0.13,-0.07 0.11,-0.07 0.02,-0.01 0.11,-0.09l0.27 -0.26c0.22,-0.28 0.2,-0.43 0.25,-0.55 0.03,-0.06 0.05,-0.06 0.05,-0.14l0 -4.48 -18.58 0 0 4.43 0 0z"/>
   </clipPath>
 </defs>
 <g id="Layer_x0020_1">
  <metadata id="CorelCorpID_0Corel-Layer"/>
  <circle class="fil0" cx="53.64" cy="53.64" r="53.64"/>
  <path class="fil1" d="M22.87 26.1l0 55.09c0,0.21 0.25,0.6 0.4,0.76 0.02,0.02 0.05,0.04 0.07,0.07l0.26 0.19c0.11,0.06 0.31,0.18 0.45,0.18l47.03 0c0.09,0 0.04,-0.02 0.11,-0.06 0.01,-0 0.01,-0.01 0.02,-0.01l0.53 -0.29c0.2,-0.17 0.36,-0.39 0.42,-0.64 0.05,-0.23 0.11,-0.22 0.11,-0.57l0 -54.39c0,-0.27 -0.06,-0.3 -0.11,-0.49l-0.1 -0.26c-0.19,-0.29 -0.37,-0.46 -0.67,-0.64l-0.17 -0.06c-0.14,-0.06 0.02,-0.06 -0.37,-0.06 -3.68,0.02 -7.35,0 -11.03,0l0 4.26c0,0.6 -0.07,0.53 -0.12,0.96l-0.06 0.22c-0.05,0.11 -0.04,0.06 -0.07,0.21l-0.26 0.59c-0.03,0.06 -0.02,0.02 -0.06,0.08 -0.19,0.29 -0.17,0.31 -0.33,0.5l-0.48 0.53c-0.02,0.02 -0.06,0.05 -0.07,0.07l-0.08 0.06c-0,0 -0.01,0.01 -0.02,0.01l-0.74 0.5c-0.01,0 -0.03,0.02 -0.03,0.02 -0.16,0.1 -0.51,0.23 -0.68,0.28 -0.16,0.05 -0.02,0.05 -0.2,0.09 -0.1,0.02 -0.16,0.01 -0.25,0.04 -0.09,0.03 -0.1,0.06 -0.21,0.08 -0.12,0.02 -0.41,0.03 -0.54,0.03 -0.2,0.01 -0.32,0.05 -0.55,0.05l-15.11 0c-0.21,0 -0.31,-0.05 -0.49,-0.05 -0.23,-0.01 -0.5,-0 -0.71,-0.1 -0.11,-0.05 -0.11,-0.03 -0.24,-0.04 -0.14,-0.02 -0.09,-0.04 -0.2,-0.08 -0.1,-0.04 -0.2,-0.04 -0.3,-0.1l-0.57 -0.28c-0.15,-0.06 -0.48,-0.31 -0.6,-0.41l-0.82 -0.86c-0,-0 -0.01,-0.01 -0.01,-0.02l-0.15 -0.24c-0.04,-0.06 -0.02,-0.01 -0.06,-0.08l-0.28 -0.66c-0.06,-0.12 -0.06,-0.01 -0.09,-0.19 -0.01,-0.06 -0.01,-0.14 -0.04,-0.21 -0.05,-0.14 -0.06,-0.03 -0.07,-0.2 -0.01,-0.18 -0.03,-0.31 -0.03,-0.51l0 -4.56 -10.27 0c-0.18,0 -0.99,-0.04 -1.13,0.03l-0.41 0.21c-0,0 -0.01,0.01 -0.02,0.01l-0.29 0.27c-0,0 -0.01,0.01 -0.01,0.01 -0.1,0.11 -0.15,0.2 -0.21,0.35 -0.04,0.12 -0.11,0.13 -0.11,0.3l0 0zm55.45 1.83l0 8.4c0,0.06 0.08,0.13 0.14,0.13l5.93 0 0 -9.66c-0.02,-0.2 0,0.07 -0.1,-0.21l-0.17 -0.3c-0.14,-0.18 -0.23,-0.36 -0.43,-0.54 -0.24,-0.23 -0.22,-0.19 -0.46,-0.36l-0.32 -0.19c-0.13,-0.06 -0.09,-0.07 -0.21,-0.1 -0.1,-0.03 -0.04,0 -0.13,-0.04 -0.23,-0.11 -0.06,-0.04 -0.26,-0.08 -0.24,-0.04 0.04,-0.08 -0.44,-0.08 -0.13,0 -1.1,-0.02 -1.19,0.02l-0.09 0.05c-0.12,0.04 -0.12,-0.01 -0.25,0.06 -0.09,0.05 -0.01,0.02 -0.12,0.05l-0.46 0.22c-0.27,0.16 -0.64,0.43 -0.81,0.68l-0.48 0.82c-0.08,0.32 -0.13,0.26 -0.13,0.5 -0,0.21 -0.03,0.38 -0.03,0.62l0 0zm0 11.42l0 35.74c0,0.18 0.01,0.39 0.04,0.56 0.02,0.12 0.05,0.13 0.08,0.22 0.03,0.09 0.02,0.19 0.05,0.28 0.03,0.1 0.06,0.11 0.08,0.22 0.02,0.09 0.02,0.2 0.05,0.28 0.05,0.12 0.05,0.05 0.08,0.22 0.06,0.38 0.05,0.18 0.11,0.36 0.05,0.17 -0.01,0.18 0.09,0.38 0.12,0.25 -0.03,0.11 0.14,0.49 0.05,0.1 0.02,0.14 0.04,0.26 0.02,0.1 0.07,0.15 0.1,0.23 0.03,0.09 0.01,0.17 0.04,0.26 0.04,0.12 0.07,0.11 0.09,0.24 0.02,0.11 0.01,0.15 0.05,0.25 0.12,0.28 0.05,0.32 0.12,0.48 0.16,0.33 0.01,0.22 0.15,0.48 0.05,0.1 0.04,0.14 0.06,0.27 0.01,0.14 0.04,0.13 0.08,0.22 0.05,0.12 0.01,0.16 0.05,0.28 0.03,0.12 0.06,0.08 0.09,0.21 0.04,0.17 0.05,0.24 0.18,0.42 0.03,0.04 0.03,0.04 0.07,0.1 0.11,0.16 0.27,0.29 0.45,0.39l0.25 0.12c0.02,0.01 0.05,0.03 0.06,0.03 0.04,0.02 0.1,0.03 0.17,0.04l0.8 0c0.11,0 0.01,-0.03 0.18,-0.08 0.06,-0.02 0.03,0 0.09,-0.02 0.07,-0.03 0.05,-0.03 0.1,-0.06 0.04,-0.03 0.08,-0.05 0.12,-0.08 0.14,-0.1 0.27,-0.22 0.37,-0.36 0,-0 0.01,-0.01 0.01,-0.02 0.22,-0.29 0.01,-0.04 0.18,-0.31 0.08,-0.12 0.02,-0.16 0.07,-0.29 0.03,-0.09 0.03,-0.04 0.07,-0.13 0.04,-0.09 0.02,-0.21 0.06,-0.32 0.04,-0.12 0.06,-0.1 0.09,-0.27 0,-0.03 0.01,-0.09 0.02,-0.14 0.03,-0.14 0,-0.03 0.05,-0.14 0.04,-0.09 0.04,-0.19 0.06,-0.3 0.03,-0.14 0.06,-0.09 0.1,-0.26 0.02,-0.1 0.01,-0.19 0.06,-0.3 0.06,-0.13 0.06,-0.1 0.08,-0.28 0.01,-0.17 0.05,-0.13 0.09,-0.26 0.04,-0.11 0.01,-0.21 0.06,-0.33 0.03,-0.06 0.03,-0.03 0.06,-0.11 0.05,-0.13 -0.03,-0.11 0.11,-0.44 0.04,-0.09 0.03,-0.2 0.06,-0.3 0.03,-0.15 0.06,-0.08 0.09,-0.26 0.03,-0.2 -0.01,-0.14 0.07,-0.29 0.05,-0.1 0.06,-0.16 0.07,-0.29 0.02,-0.19 0.05,-0.11 0.1,-0.26 0.01,-0.04 0.01,-0.09 0.02,-0.17 0.02,-0.29 0.08,0.03 0.09,-0.37l0 -0.11c-0.03,-4.6 0,-9.25 0,-13.85l0 -0.36 0 -0.35 0 -0.36 0 -0.35 0 -0.36 0 -0.36 0 -0.35 0 -0.36 0 -0.36 0 -0.36 0 -0.35 0 -0.36 0 -0.35 0 -0.36 0 -0.35 0 -0.36 0 -0.36 0 -0.35 0 -0.36 0 -0.36 0 -0.36 0 -0.36 0 -0.35 0 -0.36 0 -0.35 0 -0.36 0 -0.35 0 -0.36 0 -0.35 0 -0.36 0 -0.36 0 -0.35 0 -0.36 0 -0.35 0 -0.36 0 -0.35 0 -0.36 0 -0.36 0 -0.36 0 -0.36 0 -0.35 0 -0.36 0 -0.36 0 -0.36 0 -0.35 0 -0.36 0 -0.36 0 -0.35 0 -0.36 0 -0.35 0 -0.36 0 -0.35 0 -0.36 0 -0.35 0 -0.36 0 -0.36 0 -0.35 0 -0.36 0 -0.35 0 -0.36 0 -0.35 0 -0.36 0 -0.36 0 -0.35 -5.96 0c-0.07,0 -0.12,0.04 -0.12,0.11l0 0zm-40.06 -10.02c0,0.41 0.29,0.81 0.63,1.06l0.31 0.17c0.3,0.13 0.04,0.06 0.39,0.1 0.12,0.01 0.21,0.02 0.38,0.02l15.11 0c0.18,0 0.59,-0 0.71,-0.06 0.07,-0.04 0.01,-0.02 0.11,-0.06 0.11,-0.04 0.04,0 0.14,-0.06 0.05,-0.03 0.07,-0.04 0.13,-0.07 0.11,-0.07 0.02,-0.01 0.11,-0.09l0.27 -0.26c0.22,-0.28 0.2,-0.43 0.25,-0.55 0.03,-0.06 0.05,-0.06 0.05,-0.14l0 -4.48 -18.58 0 0 4.43 0 0z"/>
  <g style="clip-path:url(#id0)">
   <g id="_2221436931040">
    <polyline id="1" class="fil2 str0" points="34.03,44.47 37.64,47.62 44.34,41.71 "/>
    <line class="fil2 str0" x1="52.36" y1="44.97" x2="63.15" y2= "44.97" />
    <polyline class="fil2 str0" points="34.03,55.52 37.64,58.67 44.34,52.76 "/>
    <line class="fil2 str0" x1="52.36" y1="56.03" x2="63.15" y2= "56.03" />
    <polyline class="fil2 str0" points="34.03,66.57 37.64,69.72 44.34,63.81 "/>
    <line class="fil2 str0" x1="52.36" y1="67.08" x2="63.15" y2= "67.08" />
   </g>
  </g>
  <path class="fil2" d="M22.87 26.1l0 55.09c0,0.21 0.25,0.6 0.4,0.76 0.02,0.02 0.05,0.04 0.07,0.07l0.26 0.19c0.11,0.06 0.31,0.18 0.45,0.18l47.03 0c0.09,0 0.04,-0.02 0.11,-0.06 0.01,-0 0.01,-0.01 0.02,-0.01l0.53 -0.29c0.2,-0.17 0.36,-0.39 0.42,-0.64 0.05,-0.23 0.11,-0.22 0.11,-0.57l0 -54.39c0,-0.27 -0.06,-0.3 -0.11,-0.49l-0.1 -0.26c-0.19,-0.29 -0.37,-0.46 -0.67,-0.64l-0.17 -0.06c-0.14,-0.06 0.02,-0.06 -0.37,-0.06 -3.68,0.02 -7.35,0 -11.03,0l0 4.26c0,0.6 -0.07,0.53 -0.12,0.96l-0.06 0.22c-0.05,0.11 -0.04,0.06 -0.07,0.21l-0.26 0.59c-0.03,0.06 -0.02,0.02 -0.06,0.08 -0.19,0.29 -0.17,0.31 -0.33,0.5l-0.48 0.53c-0.02,0.02 -0.06,0.05 -0.07,0.07l-0.08 0.06c-0,0 -0.01,0.01 -0.02,0.01l-0.74 0.5c-0.01,0 -0.03,0.02 -0.03,0.02 -0.16,0.1 -0.51,0.23 -0.68,0.28 -0.16,0.05 -0.02,0.05 -0.2,0.09 -0.1,0.02 -0.16,0.01 -0.25,0.04 -0.09,0.03 -0.1,0.06 -0.21,0.08 -0.12,0.02 -0.41,0.03 -0.54,0.03 -0.2,0.01 -0.32,0.05 -0.55,0.05l-15.11 0c-0.21,0 -0.31,-0.05 -0.49,-0.05 -0.23,-0.01 -0.5,-0 -0.71,-0.1 -0.11,-0.05 -0.11,-0.03 -0.24,-0.04 -0.14,-0.02 -0.09,-0.04 -0.2,-0.08 -0.1,-0.04 -0.2,-0.04 -0.3,-0.1l-0.57 -0.28c-0.15,-0.06 -0.48,-0.31 -0.6,-0.41l-0.82 -0.86c-0,-0 -0.01,-0.01 -0.01,-0.02l-0.15 -0.24c-0.04,-0.06 -0.02,-0.01 -0.06,-0.08l-0.28 -0.66c-0.06,-0.12 -0.06,-0.01 -0.09,-0.19 -0.01,-0.06 -0.01,-0.14 -0.04,-0.21 -0.05,-0.14 -0.06,-0.03 -0.07,-0.2 -0.01,-0.18 -0.03,-0.31 -0.03,-0.51l0 -4.56 -10.27 0c-0.18,0 -0.99,-0.04 -1.13,0.03l-0.41 0.21c-0,0 -0.01,0.01 -0.02,0.01l-0.29 0.27c-0,0 -0.01,0.01 -0.01,0.01 -0.1,0.11 -0.15,0.2 -0.21,0.35 -0.04,0.12 -0.11,0.13 -0.11,0.3l0 0zm55.45 1.83l0 8.4c0,0.06 0.08,0.13 0.14,0.13l5.93 0 0 -9.66c-0.02,-0.2 0,0.07 -0.1,-0.21l-0.17 -0.3c-0.14,-0.18 -0.23,-0.36 -0.43,-0.54 -0.24,-0.23 -0.22,-0.19 -0.46,-0.36l-0.32 -0.19c-0.13,-0.06 -0.09,-0.07 -0.21,-0.1 -0.1,-0.03 -0.04,0 -0.13,-0.04 -0.23,-0.11 -0.06,-0.04 -0.26,-0.08 -0.24,-0.04 0.04,-0.08 -0.44,-0.08 -0.13,0 -1.1,-0.02 -1.19,0.02l-0.09 0.05c-0.12,0.04 -0.12,-0.01 -0.25,0.06 -0.09,0.05 -0.01,0.02 -0.12,0.05l-0.46 0.22c-0.27,0.16 -0.64,0.43 -0.81,0.68l-0.48 0.82c-0.08,0.32 -0.13,0.26 -0.13,0.5 -0,0.21 -0.03,0.38 -0.03,0.62l0 0zm0 11.42l0 35.74c0,0.18 0.01,0.39 0.04,0.56 0.02,0.12 0.05,0.13 0.08,0.22 0.03,0.09 0.02,0.19 0.05,0.28 0.03,0.1 0.06,0.11 0.08,0.22 0.02,0.09 0.02,0.2 0.05,0.28 0.05,0.12 0.05,0.05 0.08,0.22 0.06,0.38 0.05,0.18 0.11,0.36 0.05,0.17 -0.01,0.18 0.09,0.38 0.12,0.25 -0.03,0.11 0.14,0.49 0.05,0.1 0.02,0.14 0.04,0.26 0.02,0.1 0.07,0.15 0.1,0.23 0.03,0.09 0.01,0.17 0.04,0.26 0.04,0.12 0.07,0.11 0.09,0.24 0.02,0.11 0.01,0.15 0.05,0.25 0.12,0.28 0.05,0.32 0.12,0.48 0.16,0.33 0.01,0.22 0.15,0.48 0.05,0.1 0.04,0.14 0.06,0.27 0.01,0.14 0.04,0.13 0.08,0.22 0.05,0.12 0.01,0.16 0.05,0.28 0.03,0.12 0.06,0.08 0.09,0.21 0.04,0.17 0.05,0.24 0.18,0.42 0.03,0.04 0.03,0.04 0.07,0.1 0.11,0.16 0.27,0.29 0.45,0.39l0.25 0.12c0.02,0.01 0.05,0.03 0.06,0.03 0.04,0.02 0.1,0.03 0.17,0.04l0.8 0c0.11,0 0.01,-0.03 0.18,-0.08 0.06,-0.02 0.03,0 0.09,-0.02 0.07,-0.03 0.05,-0.03 0.1,-0.06 0.04,-0.03 0.08,-0.05 0.12,-0.08 0.14,-0.1 0.27,-0.22 0.37,-0.36 0,-0 0.01,-0.01 0.01,-0.02 0.22,-0.29 0.01,-0.04 0.18,-0.31 0.08,-0.12 0.02,-0.16 0.07,-0.29 0.03,-0.09 0.03,-0.04 0.07,-0.13 0.04,-0.09 0.02,-0.21 0.06,-0.32 0.04,-0.12 0.06,-0.1 0.09,-0.27 0,-0.03 0.01,-0.09 0.02,-0.14 0.03,-0.14 0,-0.03 0.05,-0.14 0.04,-0.09 0.04,-0.19 0.06,-0.3 0.03,-0.14 0.06,-0.09 0.1,-0.26 0.02,-0.1 0.01,-0.19 0.06,-0.3 0.06,-0.13 0.06,-0.1 0.08,-0.28 0.01,-0.17 0.05,-0.13 0.09,-0.26 0.04,-0.11 0.01,-0.21 0.06,-0.33 0.03,-0.06 0.03,-0.03 0.06,-0.11 0.05,-0.13 -0.03,-0.11 0.11,-0.44 0.04,-0.09 0.03,-0.2 0.06,-0.3 0.03,-0.15 0.06,-0.08 0.09,-0.26 0.03,-0.2 -0.01,-0.14 0.07,-0.29 0.05,-0.1 0.06,-0.16 0.07,-0.29 0.02,-0.19 0.05,-0.11 0.1,-0.26 0.01,-0.04 0.01,-0.09 0.02,-0.17 0.02,-0.29 0.08,0.03 0.09,-0.37l0 -0.11c-0.03,-4.6 0,-9.25 0,-13.85l0 -0.36 0 -0.35 0 -0.36 0 -0.35 0 -0.36 0 -0.36 0 -0.35 0 -0.36 0 -0.36 0 -0.36 0 -0.35 0 -0.36 0 -0.35 0 -0.36 0 -0.35 0 -0.36 0 -0.36 0 -0.35 0 -0.36 0 -0.36 0 -0.36 0 -0.36 0 -0.35 0 -0.36 0 -0.35 0 -0.36 0 -0.35 0 -0.36 0 -0.35 0 -0.36 0 -0.36 0 -0.35 0 -0.36 0 -0.35 0 -0.36 0 -0.35 0 -0.36 0 -0.36 0 -0.36 0 -0.36 0 -0.35 0 -0.36 0 -0.36 0 -0.36 0 -0.35 0 -0.36 0 -0.36 0 -0.35 0 -0.36 0 -0.35 0 -0.36 0 -0.35 0 -0.36 0 -0.35 0 -0.36 0 -0.36 0 -0.35 0 -0.36 0 -0.35 0 -0.36 0 -0.35 0 -0.36 0 -0.36 0 -0.35 -5.96 0c-0.07,0 -0.12,0.04 -0.12,0.11l0 0zm-40.06 -10.02c0,0.41 0.29,0.81 0.63,1.06l0.31 0.17c0.3,0.13 0.04,0.06 0.39,0.1 0.12,0.01 0.21,0.02 0.38,0.02l15.11 0c0.18,0 0.59,-0 0.71,-0.06 0.07,-0.04 0.01,-0.02 0.11,-0.06 0.11,-0.04 0.04,0 0.14,-0.06 0.05,-0.03 0.07,-0.04 0.13,-0.07 0.11,-0.07 0.02,-0.01 0.11,-0.09l0.27 -0.26c0.22,-0.28 0.2,-0.43 0.25,-0.55 0.03,-0.06 0.05,-0.06 0.05,-0.14l0 -4.48 -18.58 0 0 4.43 0 0z"/>
 </g>
</svg>
